<?xml version="1.0" encoding="UTF-8"?>
<svg version="1.1" xmlns="http://www.w3.org/2000/svg" width="1024" height="1024">
<path d="M0 0 C337.92 0 675.84 0 1024 0 C1024 337.92 1024 675.84 1024 1024 C686.08 1024 348.16 1024 0 1024 C0 686.08 0 348.16 0 0 Z " fill="#080807" transform="translate(0,0)"/>
<path d="M0 0 C0.81125336 -0.00261841 1.62250671 -0.00523682 2.45834351 -0.00793457 C23.15704204 -0.0150443 43.7665659 2.23387592 63.625 8.3125 C64.4082666 8.54807617 65.1915332 8.78365234 65.99853516 9.02636719 C98.5058394 18.93963349 128.2947382 35.14963776 153.35546875 58.2265625 C155.4526005 60.15404676 157.58876355 62.02011357 159.75 63.875 C166.99873449 70.22309013 173.34453863 77.0750918 179.30761719 84.64453125 C180.23249076 85.815535 181.16337139 86.9818073 182.09863281 88.14453125 C205.62611942 117.44014153 220.60777024 150.7283481 228.625 187.3125 C228.80579102 188.09512207 228.98658203 188.87774414 229.17285156 189.68408203 C235.36204882 217.33859662 234.52386173 253.14520283 226.625 280.3125 C226.1837193 282.18661382 225.74636859 284.06165638 225.3125 285.9375 C218.89816034 311.33034979 207.78087955 335.94270983 192.625 357.3125 C192.00109375 358.21097656 191.3771875 359.10945313 190.734375 360.03515625 C185.83949038 366.94967822 180.48801738 373.4128031 174.93603516 379.80175781 C173.76590974 381.15012579 172.60679093 382.50802734 171.44921875 383.8671875 C135.37712604 425.30593807 79.47885172 454.05902475 24.625 458.3125 C17.87865765 458.68661203 11.13035385 458.75324453 4.375 458.75 C3.16730453 458.75060425 3.16730453 458.75060425 1.93521118 458.7512207 C-12.61825646 458.70802042 -27.37823006 457.90757719 -41.5625 454.4375 C-42.68023804 454.17271851 -42.68023804 454.17271851 -43.82055664 453.90258789 C-45.31715305 453.54484149 -46.81258229 453.18216722 -48.30664062 452.81396484 C-50.16127062 452.36431777 -52.02554137 451.9548827 -53.890625 451.55078125 C-89.35418433 443.25166063 -123.35606084 423.3057767 -149.89453125 398.60546875 C-152.01009748 396.64981934 -154.16743291 394.78684119 -156.375 392.9375 C-172.74089711 378.59249302 -185.70261325 360.12875123 -196.375 341.3125 C-197.01646973 340.1980249 -197.01646973 340.1980249 -197.67089844 339.06103516 C-209.76484952 317.8714441 -217.92900912 294.47422054 -222.625 270.5625 C-222.78846924 269.73532471 -222.95193848 268.90814941 -223.12036133 268.0559082 C-227.89642841 242.20401231 -228.10912025 210.99338614 -222.375 185.3125 C-222.17100586 184.36745605 -221.96701172 183.42241211 -221.75683594 182.44873047 C-213.0493887 142.91032923 -195.04145518 106.50260978 -167.54296875 76.66796875 C-166.08673128 75.08578642 -164.65190488 73.48365057 -163.23828125 71.86328125 C-148.47834903 54.98343057 -130.61343369 41.66679858 -111.375 30.3125 C-110.73240234 29.92610352 -110.08980469 29.53970703 -109.42773438 29.14160156 C-84.36839766 14.11859216 -56.29549747 5.10799688 -27.375 1.3125 C-26.62782715 1.21155029 -25.8806543 1.11060059 -25.11083984 1.0065918 C-16.77567853 0.02271451 -8.38221071 0.02593828 0 0 Z " fill="#0889E2" transform="translate(509.375,282.6875)"/>
<path d="M0 0 C1.04607422 -0.020625 2.09214844 -0.04125 3.16992188 -0.0625 C4.18248047 -0.06765625 5.19503906 -0.0728125 6.23828125 -0.078125 C7.62527222 -0.09214355 7.62527222 -0.09214355 9.0402832 -0.10644531 C12.27658167 0.32931931 14.0910798 1.28430152 16.6875 3.25 C18.91367341 6.40128153 18.98541159 9.31511178 19.1015625 13.109375 C19.14023437 14.22441406 19.17890625 15.33945312 19.21875 16.48828125 C19.2496875 17.64714844 19.280625 18.80601562 19.3125 20 C19.35117187 21.17433594 19.38984375 22.34867187 19.4296875 23.55859375 C19.5238982 26.45557268 19.60951602 29.35254626 19.6875 32.25 C20.7290625 32.4459375 21.770625 32.641875 22.84375 32.84375 C36.66994635 35.64963065 50.0245 40.69924036 60.6875 50.25 C61.34878906 50.83136719 62.01007813 51.41273438 62.69140625 52.01171875 C73.02869267 61.68208346 79.68851914 73.91020899 80.1875 88.1875 C80.23779854 93.26136523 79.20771974 95.57872606 75.6875 99.25 C67.78855766 103.19947117 52.24738981 102.1635187 43.6875 100.25 C38.5379122 96.92347716 36.58290056 91.716442 34.54516602 86.15454102 C33.2153725 83.20158935 31.10196649 81.34616061 28.6875 79.25 C27.924375 78.569375 27.16125 77.88875 26.375 77.1875 C14.18858934 68.40194813 0.01459553 67.71742865 -14.48828125 69.6796875 C-23.8285678 72.09296728 -31.12340497 77.93384115 -36.15625 86.0390625 C-39.3723196 92.1887091 -40.21783628 97.3491204 -39.3125 104.25 C-36.19672203 113.35270672 -30.64312785 119.04585097 -22.40234375 123.77734375 C-12.61263419 128.44323566 -1.73602263 130.41982084 8.8125 132.625 C26.66764582 136.38429163 43.77533258 141.16001036 59.6875 150.25 C60.56535156 150.74113281 61.44320312 151.23226562 62.34765625 151.73828125 C74.72854142 159.2772422 82.18734792 171.40125965 85.6875 185.25 C86.16299471 190.40551538 86.17751551 195.57487578 86.1875 200.75 C86.18951416 201.46964935 86.19152832 202.18929871 86.19360352 202.93075562 C86.17302229 213.76691974 85.59863327 222.86024673 79.6875 232.25 C79.07261719 233.24128906 78.45773437 234.23257813 77.82421875 235.25390625 C63.26229159 256.70283704 42.10756669 265.79479456 17.6875 271.25 C17.68339111 271.98114014 17.67928223 272.71228027 17.67504883 273.46557617 C17.64207791 276.79036307 17.57142853 280.11332616 17.5 283.4375 C17.49129883 285.16323242 17.49129883 285.16323242 17.48242188 286.92382812 C17.25973547 295.46014017 17.25973547 295.46014017 14.38671875 299.42578125 C8.82651 303.18354896 4.97855169 303.61487961 -1.625 303.625 C-2.45451172 303.64949219 -3.28402344 303.67398437 -4.13867188 303.69921875 C-10.04619447 303.72719439 -13.53774721 302.7962676 -18.3125 299.25 C-21.00947113 295.5702743 -21.6781584 293.04270709 -21.60546875 288.51171875 C-21.59580078 287.44501953 -21.58613281 286.37832031 -21.57617188 285.27929688 C-21.55103516 284.17650391 -21.52589844 283.07371094 -21.5 281.9375 C-21.47969727 280.25430664 -21.47969727 280.25430664 -21.45898438 278.53710938 C-21.4237138 275.77424771 -21.37442235 273.01237171 -21.3125 270.25 C-21.93938721 270.20681641 -22.56627441 270.16363281 -23.2121582 270.11914062 C-28.95935808 269.64648588 -34.08417534 268.71939079 -39.5 266.75 C-40.21978027 266.49154297 -40.93956055 266.23308594 -41.68115234 265.96679688 C-60.39259931 258.90030518 -74.87010844 246.77600347 -83.38671875 228.42578125 C-86.59450596 220.88680456 -87.85696477 213.41697153 -87.3125 205.25 C-86.03320312 203.5408783 -86.03320312 203.5408783 -84.3125 202.25 C-81.4067257 201.9394979 -78.71963903 201.80582183 -75.8125 201.81640625 C-74.98041016 201.8111644 -74.14832031 201.80592255 -73.29101562 201.80052185 C-71.53256343 201.79410121 -69.77406829 201.79543923 -68.015625 201.80395508 C-65.32214103 201.81246952 -62.63077459 201.78369951 -59.9375 201.75195312 C-58.2291673 201.75034115 -56.52083084 201.75091857 -54.8125 201.75390625 C-54.00619141 201.74267227 -53.19988281 201.73143829 -52.36914062 201.71986389 C-46.79058921 201.78955837 -46.79058921 201.78955837 -44.34814453 204.1418457 C-43.25264863 206.37183324 -42.18774368 208.60037178 -41.1875 210.875 C-36.10899497 221.19976848 -28.00845845 228.97125676 -17.17578125 232.85546875 C-12.23369204 234.45449884 -7.66500548 234.71210127 -2.5 234.625 C-1.6248877 234.61484863 -0.74977539 234.60469727 0.15185547 234.59423828 C11.13211585 234.33236851 20.93458972 232.24930477 29.6875 225.25 C36.7660221 217.80376246 39.13044474 211.45669503 39.12353516 201.2800293 C38.91275037 193.41523443 36.27762379 189.90035922 31 184.5 C24.10849124 179.24953449 14.87388879 177.31625648 6.625 175.25 C5.61912842 174.9914624 4.61325684 174.7329248 3.5769043 174.46655273 C-1.58965859 173.14850587 -6.76518795 171.90854094 -11.97241211 170.76293945 C-36.81233803 165.24461756 -62.15288943 155.69689708 -77.43359375 134.3203125 C-80.17071335 129.84759732 -81.92002193 125.28944445 -83.3125 120.25 C-83.4868457 119.67266113 -83.66119141 119.09532227 -83.84082031 118.50048828 C-84.95706944 113.17461643 -84.54108215 107.54371526 -84.5625 102.125 C-84.583125 100.84367187 -84.60375 99.56234375 -84.625 98.2421875 C-84.69304989 81.63801442 -78.77406621 67.39165914 -67.3125 55.25 C-56.33746484 44.52561818 -37.48225831 33.49640728 -21.59838867 33.19921875 C-20.46687378 33.22435547 -20.46687378 33.22435547 -19.3125 33.25 C-19.3439209 32.45827393 -19.3753418 31.66654785 -19.40771484 30.85083008 C-19.53262637 27.25501205 -19.61053601 23.65965035 -19.6875 20.0625 C-19.73777344 18.81662109 -19.78804688 17.57074219 -19.83984375 16.28710938 C-19.98502245 7.26183366 -19.98502245 7.26183366 -18.02050781 4.30615234 C-12.35263461 -0.48139162 -7.04087771 0.03432482 0 0 Z " fill="#090808" transform="translate(513.3125,359.75)"/>
<path d="M0 0 C0 0.33 0 0.66 0 1 C-0.95745117 0.9292627 -1.91490234 0.85852539 -2.90136719 0.78564453 C-14.34973721 -0.00321587 -25.76095025 -0.15474569 -37.23388672 -0.13037109 C-40.28748366 -0.12493325 -43.3409383 -0.13039258 -46.39453125 -0.13671875 C-48.35156282 -0.13605914 -50.30859431 -0.13478043 -52.265625 -0.1328125 C-53.17080872 -0.13483673 -54.07599243 -0.13686096 -55.00860596 -0.13894653 C-60.34116384 -0.11907025 -64.91105765 0.30368588 -70 2 C-71.73324119 1.91538508 -73.46392812 1.76395645 -75.1875 1.5625 C-76.08855469 1.46066406 -76.98960937 1.35882813 -77.91796875 1.25390625 C-78.60503906 1.17011719 -79.29210937 1.08632813 -80 1 C-80 0.67 -80 0.34 -80 0 C-54.02714611 -4.85365901 -25.95114976 -5.17175938 0 0 Z " fill="#208ED6" transform="translate(550,286)"/>
<path d="M0 0 C0.33 0.66 0.66 1.32 1 2 C1.66 2 2.32 2 3 2 C2.69191406 2.85722656 2.38382812 3.71445312 2.06640625 4.59765625 C1.02864707 7.90860222 0.41859777 11.00513021 -0.0625 14.4375 C-0.21847656 15.50871094 -0.37445313 16.57992188 -0.53515625 17.68359375 C-2.06639042 30.75747178 -2.12863897 43.79830692 -2.0625 56.9375 C-2.05746883 58.6998685 -2.05290882 60.46223842 -2.04882812 62.22460938 C-2.03796467 66.48310866 -2.02079171 70.74153809 -2 75 C-2.33 75 -2.66 75 -3 75 C-3.75219476 68.93269759 -4.16901153 63.00141098 -4.203125 56.890625 C-4.21337456 55.62828285 -4.21337456 55.62828285 -4.22383118 54.34043884 C-4.24078373 51.64358452 -4.24715007 48.9469044 -4.25 46.25 C-4.25200409 45.33425201 -4.25400818 44.41850403 -4.256073 43.4750061 C-4.26400892 28.7088427 -3.66182691 14.38081348 0 0 Z " fill="#2594DD" transform="translate(288,464)"/>
<path d="M0 0 C0.99 0.495 0.99 0.495 2 1 C2.144375 1.639375 2.28875 2.27875 2.4375 2.9375 C2.86165035 5.38210855 2.86165035 5.38210855 6 7 C6.268125 7.78375 6.53625 8.5675 6.8125 9.375 C8.45039383 12.99560742 10.55966248 14.11118724 14 16 C16.57061311 16.64767793 16.57061311 16.64767793 19 17 C21.56870957 18.13325422 23.64644744 19.43096496 26 21 C28.64017635 21.81779841 31.30270591 22.3809489 34 23 C34 23.33 34 23.66 34 24 C24.09092358 23.50454618 13.22385312 20.15032789 6 13 C0 5.55679287 0 5.55679287 0 0 Z " fill="#1A91E2" transform="translate(475,465)"/>
<path d="M0 0 C3.74985325 -0.0871747 7.49944555 -0.14045003 11.25 -0.1875 C12.31347656 -0.21263672 13.37695312 -0.23777344 14.47265625 -0.26367188 C15.49746094 -0.27333984 16.52226563 -0.28300781 17.578125 -0.29296875 C18.52075195 -0.3086792 19.46337891 -0.32438965 20.43457031 -0.34057617 C23 0 23 0 27 3 C18.09 3 9.18 3 0 3 C0 2.01 0 1.02 0 0 Z " fill="#0F92ED" transform="translate(502,357)"/>
<path d="M0 0 C3.3 0.33 6.6 0.66 10 1 C10 9.91 10 18.82 10 28 C9.01 28 8.02 28 7 28 C7.33 19.42 7.66 10.84 8 2 C5.36 1.67 2.72 1.34 0 1 C0 0.67 0 0.34 0 0 Z " fill="#1E89D2" transform="translate(482,629)"/>
<path d="M0 0 C3.29159316 -0.05790353 6.58305603 -0.09356261 9.875 -0.125 C10.81214844 -0.14175781 11.74929688 -0.15851563 12.71484375 -0.17578125 C13.61074219 -0.18222656 14.50664063 -0.18867188 15.4296875 -0.1953125 C16.25710449 -0.20578613 17.08452148 -0.21625977 17.93701172 -0.22705078 C20 0 20 0 22 2 C12.76 2.66 3.52 3.32 -6 4 C-2 2 -2 2 0 2 C0 1.34 0 0.68 0 0 Z " fill="#0F92ED" transform="translate(502,428)"/>
<path d="M0 0 C-7.9196469 3.89642016 -15.88243542 7.4962132 -24.1875 10.5 C-24.90542725 10.76699707 -25.62335449 11.03399414 -26.36303711 11.30908203 C-30.033066 12.59884625 -32.29600138 13.16898706 -36 12 C-35.34402832 11.76289307 -34.68805664 11.52578613 -34.01220703 11.28149414 C-31.04934949 10.20974963 -28.08716816 9.13614831 -25.125 8.0625 C-24.09246094 7.68931641 -23.05992187 7.31613281 -21.99609375 6.93164062 C-21.00996094 6.57392578 -20.02382813 6.21621094 -19.0078125 5.84765625 C-17.64100342 5.3527771 -17.64100342 5.3527771 -16.24658203 4.84790039 C-14.00928789 4.04738479 -14.00928789 4.04738479 -12 3 C-12.33 2.34 -12.66 1.68 -13 1 C-11.20994059 0.63779734 -9.41787943 0.28547531 -7.625 -0.0625 C-6.12839844 -0.35833984 -6.12839844 -0.35833984 -4.6015625 -0.66015625 C-2 -1 -2 -1 0 0 Z " fill="#1C96E6" transform="translate(610,719)"/>
<path d="M0 0 C0.66 0.33 1.32 0.66 2 1 C1.39671875 1.43570312 0.7934375 1.87140625 0.171875 2.3203125 C-7.54623525 7.81700511 -7.54623525 7.81700511 -11.3828125 16.1640625 C-11.54306797 17.70975237 -11.67760935 19.25834452 -11.78515625 20.80859375 C-12.07009792 23.71499874 -12.95569544 26.28480813 -14 29 C-14.33 29 -14.66 29 -15 29 C-15.83400869 20.01123973 -14.76844469 14.07545612 -9 7 C-6.25762411 4.21220174 -3.50938033 1.75469016 0 0 Z " fill="#1A96E9" transform="translate(489,433)"/>
<path d="M0 0 C2.875 -0.1875 2.875 -0.1875 6 0 C6.66 0.99 7.32 1.98 8 3 C10.41607417 3.79798218 10.41607417 3.79798218 13.125 4.1875 C14.03507813 4.34605469 14.94515625 4.50460937 15.8828125 4.66796875 C16.93082031 4.83232422 16.93082031 4.83232422 18 5 C18.33 6.32 18.66 7.64 19 9 C17.90300781 8.72285156 16.80601562 8.44570313 15.67578125 8.16015625 C14.22137007 7.79420763 12.7669421 7.42832573 11.3125 7.0625 C10.59126953 6.88009766 9.87003906 6.69769531 9.12695312 6.50976562 C5.43172752 5.58174093 1.74654531 4.70201539 -2 4 C-2 3.67 -2 3.34 -2 3 C-0.35 2.67 1.3 2.34 3 2 C2.01 1.34 1.02 0.68 0 0 Z " fill="#060B14" transform="translate(510,528)"/>
<path d="M0 0 C0.99 0 1.98 0 3 0 C1.39531044 3.64937464 -0.85619865 6.48721928 -3.375 9.5625 C-4.14585937 10.51253906 -4.91671875 11.46257813 -5.7109375 12.44140625 C-7.69459021 14.65862898 -9.5496496 16.33846103 -12 18 C-12 16.68 -12 15.36 -12 14 C-11.01 14 -10.02 14 -9 14 C-8.938125 13.236875 -8.87625 12.47375 -8.8125 11.6875 C-7.73648659 8.12837873 -6.12782256 7.83092052 -3 6 C-1.71745356 3.46229997 -1.71745356 3.46229997 -1 1 C-0.67 0.67 -0.34 0.34 0 0 Z " fill="#1492E8" transform="translate(692,648)"/>
<path d="M0 0 C0.99 0.495 0.99 0.495 2 1 C2.33 8.26 2.66 15.52 3 23 C2.01 23 1.02 23 0 23 C0 15.41 0 7.82 0 0 Z " fill="#0D95F3" transform="translate(533,369)"/>
<path d="M0 0 C0 3 0 3 -1.93359375 5.15625 C-2.75988281 5.9296875 -3.58617187 6.703125 -4.4375 7.5 C-7.9948738 10.73958021 -7.9948738 10.73958021 -10 15 C-11.32 15 -12.64 15 -14 15 C-14 15.66 -14 16.32 -14 17 C-16.31 17.66 -18.62 18.32 -21 19 C-18.40122466 16.30757509 -15.75437467 13.97626325 -12.75 11.75 C-8.10195855 8.19652221 -4.03192297 4.22967396 0 0 Z " fill="#1B92E2" transform="translate(587,600)"/>
<path d="M0 0 C0.66 0 1.32 0 2 0 C3.26264601 4.29299643 2.62950412 6.87831311 1 11 C0.34 11 -0.32 11 -1 11 C-1 10.34 -1 9.68 -1 9 C-1.99 9 -2.98 9 -4 9 C-4.33 9.99 -4.66 10.98 -5 12 C-5.33 11.34 -5.66 10.68 -6 10 C-4.85546875 7.6171875 -4.85546875 7.6171875 -3.1875 4.875 C-2.64480469 3.96492188 -2.10210937 3.05484375 -1.54296875 2.1171875 C-1.03378906 1.41851562 -0.52460938 0.71984375 0 0 Z " fill="#118FE5" transform="translate(319,389)"/>
<path d="M0 0 C0.99 0 1.98 0 3 0 C1.57799908 5.3120724 -0.89346446 9.03913019 -4.125 13.375 C-4.59292969 14.01566406 -5.06085937 14.65632812 -5.54296875 15.31640625 C-6.68843557 16.88265681 -7.84327314 18.44204685 -9 20 C-9.33 18.68 -9.66 17.36 -10 16 C-9.34 16 -8.68 16 -8 16 C-8 15.01 -8 14.02 -8 13 C-7.01 12.34 -6.02 11.68 -5 11 C-4.27617533 8.94074861 -4.27617533 8.94074861 -4 7 C-3.34 7 -2.68 7 -2 7 C-2 6.01 -2 5.02 -2 4 C-1.34 4 -0.68 4 0 4 C0 2.68 0 1.36 0 0 Z " fill="#1891E4" transform="translate(706,627)"/>
<path d="M0 0 C0.66 0 1.32 0 2 0 C2.66 0.66 3.32 1.32 4 2 C4.99 2.33 5.98 2.66 7 3 C7 3.66 7 4.32 7 5 C7.66 5 8.32 5 9 5 C9 5.66 9 6.32 9 7 C9.53625 7.20625 10.0725 7.4125 10.625 7.625 C14.0017654 9.57996944 16.30474839 12.18223695 19 15 C18.67 15.66 18.34 16.32 18 17 C17.34257813 16.25556641 17.34257813 16.25556641 16.671875 15.49609375 C11.15560927 9.58741074 5.10455201 5.7890944 -2 2 C-1.34 1.34 -0.68 0.68 0 0 Z " fill="#1B8EDD" transform="translate(561,399)"/>
<path d="M0 0 C-1.78809697 1.17213045 -3.58059125 2.33755526 -5.375 3.5 C-6.37273438 4.1496875 -7.37046875 4.799375 -8.3984375 5.46875 C-11 7 -11 7 -13 7 C-13 5.35 -13 3.7 -13 2 C-12.34 2 -11.68 2 -11 2 C-11 1.34 -11 0.68 -11 0 C-10.01 0 -9.02 0 -8 0 C-7.67 0.33 -7.34 0.66 -7 1 C-6.401875 0.649375 -5.80375 0.29875 -5.1875 -0.0625 C-3 -1 -3 -1 0 0 Z " fill="#138FE4" transform="translate(635,705)"/>
<path d="M0 0 C0.33 0 0.66 0 1 0 C1 4.62 1 9.24 1 14 C0.01 14 -0.98 14 -2 14 C-2.05410687 12.22950311 -2.09284119 10.45853151 -2.125 8.6875 C-2.14820313 7.70136719 -2.17140625 6.71523438 -2.1953125 5.69921875 C-2 3 -2 3 0 0 Z " fill="#0E90EB" transform="translate(552,557)"/>
<path d="M0 0 C1.28132812 0.10183594 2.56265625 0.20367188 3.8828125 0.30859375 C4.87023437 0.39238281 5.85765625 0.47617187 6.875 0.5625 C3.0334024 3.13030471 -0.9389175 2.78938882 -5.375 2.6875 C-6.12007812 2.67847656 -6.86515625 2.66945313 -7.6328125 2.66015625 C-9.46368059 2.63668358 -11.29438238 2.60081525 -13.125 2.5625 C-8.1415641 0.07078205 -5.71895426 -0.46791444 0 0 Z " fill="#2095E2" transform="translate(518.125,592.4375)"/>
<path d="M0 0 C0.33 0 0.66 0 1 0 C0.85879286 1.93784265 0.71187127 3.87526955 0.5625 5.8125 C0.48128906 6.89144531 0.40007813 7.97039063 0.31640625 9.08203125 C0 12 0 12 -1 15 C-1.99 15 -2.98 15 -4 15 C-3.32584613 9.7415998 -1.75734451 4.97361654 0 0 Z " fill="#1590E5" transform="translate(599,574)"/>
<path d="M0 0 C6.0546875 -0.1953125 6.0546875 -0.1953125 8 0 C8.66 0.66 9.32 1.32 10 2 C10.66 2 11.32 2 12 2 C12 2.66 12 3.32 12 4 C12.66 4 13.32 4 14 4 C14 4.66 14 5.32 14 6 C8.93001981 5.34580901 4.58009223 3.1453591 0 1 C0 0.67 0 0.34 0 0 Z " fill="#060D18" transform="translate(592,297)"/>
<path d="M0 0 C1.88153009 2.82229513 3.00034705 5.27890171 4.1875 8.4375 C4.55230469 9.38496094 4.91710937 10.33242188 5.29296875 11.30859375 C6.01860758 14.07083217 5.97849698 15.36366738 5 18 C1.90787824 11.91643021 0.43300764 6.81987029 0 0 Z " fill="#1C8AD3" transform="translate(726,432)"/>
<path d="M0 0 C-3.64859761 3.04049801 -7.7444533 4.96518762 -12 7 C-12 5.68 -12 4.36 -12 3 C-10.68 3 -9.36 3 -8 3 C-8 2.34 -8 1.68 -8 1 C-5.29120665 -0.35439668 -2.99066732 -0.06501451 0 0 Z " fill="#1590E4" transform="translate(468,400)"/>
<path d="M0 0 C2.64 0 5.28 0 8 0 C8.33 0.66 8.66 1.32 9 2 C11.02463255 2.65213292 11.02463255 2.65213292 13 3 C11.296875 4.1171875 11.296875 4.1171875 9 5 C6.640625 4.3203125 6.640625 4.3203125 4.25 3.125 C3.45078125 2.73570312 2.6515625 2.34640625 1.828125 1.9453125 C0.92320312 1.47738281 0.92320312 1.47738281 0 1 C0 0.67 0 0.34 0 0 Z " fill="#1490E5" transform="translate(427,723)"/>
<path d="M0 0 C3.83663072 1.34929464 6.65172569 3.07751025 9.8125 5.625 C10.99779297 6.57246094 10.99779297 6.57246094 12.20703125 7.5390625 C12.79871094 8.02117187 13.39039063 8.50328125 14 9 C13.34 9.66 12.68 10.32 12 11 C11.54625 10.525625 11.0925 10.05125 10.625 9.5625 C9.06741796 7.90972192 9.06741796 7.90972192 7 7 C5.64499081 5.68870078 4.31328657 4.35308313 3 3 C2.4225 2.4225 1.845 1.845 1.25 1.25 C0.8375 0.8375 0.425 0.425 0 0 Z " fill="#1B93E2" transform="translate(634,320)"/>
<path d="M0 0 C0.66 0.33 1.32 0.66 2 1 C0.2421875 1.94401042 -1.515625 2.88802083 -3.2734375 3.83203125 C-5.30502365 5.04763493 -5.30502365 5.04763493 -7 8 C-9.625 8.1875 -9.625 8.1875 -12 8 C-8.71268307 4.16479692 -4.74852829 1.67534656 0 0 Z " fill="#1E96E5" transform="translate(409,307)"/>
<path d="M0 0 C4.22448388 1.56462366 6.40096753 4.41754984 9 8 C9.8125 10.875 9.8125 10.875 10 13 C9.5875 12.443125 9.175 11.88625 8.75 11.3125 C4.90854142 6.11683666 4.90854142 6.11683666 0 2 C0 1.34 0 0.68 0 0 Z " fill="#1F94E1" transform="translate(542,543)"/>
<path d="M0 0 C-0.5625 1.9375 -0.5625 1.9375 -2 4 C-5.625 4.75 -5.625 4.75 -9 5 C-9 4.34 -9 3.68 -9 3 C-2.25 0 -2.25 0 0 0 Z " fill="#1291E7" transform="translate(566,619)"/>
<path d="M0 0 C2.64 0 5.28 0 8 0 C8.33 1.32 8.66 2.64 9 4 C4.545 3.01 4.545 3.01 0 2 C0 1.34 0 0.68 0 0 Z " fill="#071322" transform="translate(520,533)"/>
<path d="M0 0 C-0.33 1.32 -0.66 2.64 -1 4 C-3.64 4 -6.28 4 -9 4 C-6.10130984 1.70103884 -3.84906588 0 0 0 Z " fill="#070D17" transform="translate(602,723)"/>
<path d="M0 0 C2.475 0.99 2.475 0.99 5 2 C1.92000054 5.67230705 -0.2482602 6.56802365 -5 7 C-4.01 6.34 -3.02 5.68 -2 5 C-1.34 4.34 -0.68 3.68 0 3 C0 2.01 0 1.02 0 0 Z " fill="#1990E1" transform="translate(536,584)"/>
<path d="M0 0 C2.64 0.66 5.28 1.32 8 2 C8 2.99 8 3.98 8 5 C6.35 5 4.7 5 3 5 C3 4.01 3 3.02 3 2 C2.01 1.67 1.02 1.34 0 1 C0 0.67 0 0.34 0 0 Z " fill="#1393EB" transform="translate(473,626)"/>
<path d="M0 0 C0.95465783 2.16967689 1.14401212 3.56328793 0.3984375 5.82421875 C-0.35870385 7.5684743 -1.17609198 9.28627131 -2 11 C-2.82638376 8.10765685 -3 6.11257569 -3 3 C-2.01 3 -1.02 3 0 3 C0 2.01 0 1.02 0 0 Z " fill="#1595EB" transform="translate(725,591)"/>
<path d="M0 0 C1.875 0.1875 1.875 0.1875 4 1 C5.25 3.5625 5.25 3.5625 6 6 C4.02 5.34 2.04 4.68 0 4 C0 2.68 0 1.36 0 0 Z " fill="#050D18" transform="translate(464,562)"/>
<path d="M0 0 C2.0245738 1.93254772 3.42105792 3.63158688 5 6 C5 7.32 5 8.64 5 10 C4.34 9.67 3.68 9.34 3 9 C2.67 9.33 2.34 9.66 2 10 C0.89131683 6.67395049 0.45822468 3.46941546 0 0 Z " fill="#1591E9" transform="translate(431,486)"/>
<path d="M0 0 C-0.33 0.99 -0.66 1.98 -1 3 C-4.63 3 -8.26 3 -12 3 C-7.59976085 0.79988042 -4.84260226 -0.13088114 0 0 Z " fill="#1989D6" transform="translate(555,625)"/>
<path d="M0 0 C-0.33 0.99 -0.66 1.98 -1 3 C-5.455 3.495 -5.455 3.495 -10 4 C-4 0 -4 0 0 0 Z " fill="#0A90EF" transform="translate(545,628)"/>
<path d="M0 0 C4.875 4.75 4.875 4.75 6 7 C4.35 6.67 2.7 6.34 1 6 C0.67 4.02 0.34 2.04 0 0 Z " fill="#1592E8" transform="translate(438,497)"/>
<path d="M0 0 C1.17571451 3.67410785 1.07366746 7.16929183 1 11 C-1.29633824 7.55549263 -1.54016485 5.06187717 -2 1 C-1.34 0.67 -0.68 0.34 0 0 Z " fill="#010A15" transform="translate(432,476)"/>
<path d="M0 0 C0.66 0 1.32 0 2 0 C3.06775224 1.96466413 4.06553465 3.96855359 5 6 C4.67 6.66 4.34 7.32 4 8 C2 6.25 2 6.25 0 4 C0 2.68 0 1.36 0 0 Z " fill="#1690E3" transform="translate(715,410)"/>
<path d="M0 0 C3.43595166 1.52708963 6.11912454 3.59927045 9 6 C5.85262818 5.30058404 2.97411124 4.23921302 0 3 C0 2.01 0 1.02 0 0 Z " fill="#1A8CDA" transform="translate(446,611)"/>
<path d="M0 0 C0.66 0.33 1.32 0.66 2 1 C1.5504955 2.31554985 1.09010284 3.62738358 0.625 4.9375 C0.36976563 5.66839844 0.11453125 6.39929688 -0.1484375 7.15234375 C-1 9 -1 9 -3 10 C-3 8.35 -3 6.7 -3 5 C-2.34 4.67 -1.68 4.34 -1 4 C-0.34786708 1.97536745 -0.34786708 1.97536745 0 0 Z " fill="#040914" transform="translate(596,578)"/>
<path d="M0 0 C4 1 4 1 5.3125 2.8125 C6 5 6 5 5 9 C3.35 6.03 1.7 3.06 0 0 Z " fill="#040913" transform="translate(703,387)"/>
<path d="M0 0 C0.66 0.33 1.32 0.66 2 1 C1.19152271 2.16945792 0.37810888 3.33550461 -0.4375 4.5 C-0.88996094 5.1496875 -1.34242188 5.799375 -1.80859375 6.46875 C-2.20175781 6.9740625 -2.59492188 7.479375 -3 8 C-3.33 8 -3.66 8 -4 8 C-4 6.35 -4 4.7 -4 3 C-2.68 2.67 -1.36 2.34 0 2 C0 1.34 0 0.68 0 0 Z " fill="#040C14" transform="translate(326,376)"/>
<path d="M0 0 C3.7952131 1.49097658 5.61042731 3.75700849 8 7 C5 7 5 7 2.3125 4.625 C0 2 0 2 0 0 Z " fill="#1B8EDB" transform="translate(674,353)"/>
<path d="M0 0 C2.91517292 1.07401108 4.77810176 1.77810176 7 4 C4.69 4 2.38 4 0 4 C0 2.68 0 1.36 0 0 Z " fill="#050B12" transform="translate(393,707)"/>
<path d="M0 0 C4.42857143 5.14285714 4.42857143 5.14285714 5 9 C4.01 8.67 3.02 8.34 2 8 C2 6.68 2 5.36 2 4 C1.34 4 0.68 4 0 4 C0 2.68 0 1.36 0 0 Z " fill="#041121" transform="translate(308,615)"/>
<path d="M0 0 C1.27875 0.28875 2.5575 0.5775 3.875 0.875 C4.95394531 1.11863281 4.95394531 1.11863281 6.0546875 1.3671875 C8 2 8 2 10 4 C8.02 4 6.04 4 4 4 C4 3.34 4 2.68 4 2 C2.68 2 1.36 2 0 2 C0 1.34 0 0.68 0 0 Z " fill="#1092EA" transform="translate(455,619)"/>
<path d="M0 0 C0.33 0 0.66 0 1 0 C1.19491452 1.45736087 1.38069358 2.91594593 1.5625 4.375 C1.66691406 5.18710937 1.77132813 5.99921875 1.87890625 6.8359375 C2 9 2 9 1 11 C0.34 11 -0.32 11 -1 11 C-0.67 7.37 -0.34 3.74 0 0 Z " fill="#1387D9" transform="translate(426,573)"/>
<path d="M0 0 C0.66 0 1.32 0 2 0 C2.625 1.8125 2.625 1.8125 3 4 C2.01 5.485 2.01 5.485 1 7 C0.34 7 -0.32 7 -1 7 C-0.67 4.69 -0.34 2.38 0 0 Z " fill="#08101C" transform="translate(733,571)"/>
<path d="M0 0 C0.33 0.66 0.66 1.32 1 2 C1.66 2 2.32 2 3 2 C2.34 3.98 1.68 5.96 1 8 C0.34 8 -0.32 8 -1 8 C-0.67 5.36 -0.34 2.72 0 0 Z " fill="#1284D2" transform="translate(288,464)"/>
<path d="M0 0 C1.32 0.33 2.64 0.66 4 1 C4 1.66 4 2.32 4 3 C1.33333333 4.33333333 -1.33333333 5.66666667 -4 7 C-2.79618552 4.50638429 -1.54571278 2.31856917 0 0 Z " fill="#178DDC" transform="translate(337,364)"/>
<path d="M0 0 C2.46800047 1.15173355 4.04783565 2.04783565 6 4 C5.67 4.99 5.34 5.98 5 7 C3.29115995 5.37660195 1.62553283 3.70680947 0 2 C0 1.34 0 0.68 0 0 Z " fill="#06101C" transform="translate(660,337)"/>
</svg>
